<?xml version="1.0" encoding="utf-8"?>
<!-- Generator: Adobe Illustrator 24.1.2, SVG Export Plug-In . SVG Version: 6.00 Build 0)  -->
<svg version="1.1" id="Слой_1" xmlns="http://www.w3.org/2000/svg" xmlns:xlink="http://www.w3.org/1999/xlink" x="0px" y="0px"
	 width="65px" height="65px" viewBox="0 0 65 65" style="enable-background:new 0 0 65 65;" xml:space="preserve">
<g>
	<path d="M64,6.3c0.6,0,1-0.5,1-1V1c0-0.6-0.5-1-1-1H13.6c-0.6,0-1,0.5-1,1v4.2c0,0.6,0.5,1,1,1h1v17.3c-3.7,1.3-6.3,4.8-6.3,8.9
		c0,3.3,1.7,6.2,4.2,7.9c0,0.2,0,0.4,0,0.5H9.4c-5.2,0-9.4,4.2-9.4,9.4V64c0,0.6,0.5,1,1,1h28.3c0.6,0,1-0.5,1-1v-7.9
		c0-1.4,0.5-2.7,1.5-3.7l14.6-14.6H64c0.6,0,1-0.5,1-1v-4.2c0-0.6-0.5-1-1-1h-1V6.3H64z M14.7,2.1h48.2v2.1H14.7V2.1z M17.8,25.2
		c0.6,0,1.1,0.1,1.6,0.2c-1.8,1.9-4.3,3-6.9,3h-0.8C13.1,26.4,15.3,25.2,17.8,25.2z M37.3,33.5l-2.1,2.1h-8.5
		c0.2-0.7,0.4-1.4,0.5-2.1H37.3z M45.4,36l-0.3,0.3l-3.8-3.8l0.3-0.3c0.5-0.5,1.2-0.8,1.9-0.8c1.5,0,2.7,1.2,2.7,2.7
		C46.1,34.8,45.9,35.5,45.4,36z M17.8,41.9c1.1,0,2.1-0.2,3.1-0.5c-0.2,1.5-1.5,2.6-3.1,2.6c-1.6,0-2.8-1.1-3.1-2.6
		C15.7,41.7,16.7,41.9,17.8,41.9z M23,40.4c1-0.7,1.9-1.6,2.6-2.6h7.5l-1.6,1.6c-1,1-2.3,1.5-3.7,1.5h-4.7
		C23.1,40.7,23,40.5,23,40.4L23,40.4z M21.5,26.2c1.2,0.7,2.2,1.8,2.9,3c-1.4-0.3-2.8-0.9-4-1.8C20.8,27,21.2,26.6,21.5,26.2z
		 M10.5,32.5c0-0.7,0.1-1.4,0.3-2.1h1.8c2.2,0,4.3-0.6,6.1-1.8c1.8,1.5,4,2.5,6.4,2.8c0.1,0.4,0.1,0.7,0.1,1.1c0,4-3.3,7.3-7.3,7.3
		S10.5,36.5,10.5,32.5L10.5,32.5z M30.5,50.9c-1.4,1.4-2.2,3.2-2.2,5.2v6.8H10.5V51.4H8.4v11.5H2.1V50.3c0-4,3.3-7.3,7.3-7.3H13
		c0.8,1.8,2.7,3.1,4.8,3.1s4-1.3,4.8-3.1h5.2c2,0,3.8-0.8,5.2-2.1l6.9-6.9l3.8,3.8L30.5,50.9z M62.9,35.6H48c0.2-0.5,0.3-1,0.3-1.5
		c0-0.2,0-0.4-0.1-0.6h14.7L62.9,35.6z M60.8,31.5H47.4c-0.9-1.3-2.3-2.1-3.9-2.1c-1.3,0-2.5,0.5-3.4,1.4l-0.7,0.7H27.2
		c-0.5-4.7-4.5-8.4-9.4-8.4c-0.4,0-0.7,0-1,0.1V6.3h44V31.5z"/>
	<path d="M28.3,23.1c4,0,7.3-3.3,7.3-7.3s-3.3-7.3-7.3-7.3S21,11.7,21,15.7S24.3,23.1,28.3,23.1z M28.3,21c-1.5,0-2.9-0.7-3.8-1.7
		l4.1-2.5h4.8C33,19.2,30.8,21,28.3,21L28.3,21z M33.4,14.7h-4.1v-4.1C31.4,11,33,12.6,33.4,14.7z M27.3,10.6v4.5l-3.9,2.3
		c-0.2-0.5-0.3-1.1-0.3-1.7C23.1,13.2,24.9,11.1,27.3,10.6z"/>
	<path d="M40.9,24.1h16.8c0.6,0,1-0.5,1-1v-4.2c0-0.6-0.5-1-1-1h-1v-3.1h-2.1v3.1h-2.1v-5.2h-2.1v5.2h-2.1v-7.3h-2.1v7.3H44V8.4
		h-2.1v9.4h-1c-0.6,0-1,0.5-1,1v4.2C39.8,23.6,40.3,24.1,40.9,24.1z M41.9,19.9h14.7V22H41.9V19.9z"/>
	<path d="M48.2,26.2h10.5v2.1H48.2V26.2z"/>
	<path d="M28.3,26.2h7.3v2.1h-7.3V26.2z"/>
	<path d="M26.2,48.2h-6.3c-0.6,0-1,0.5-1,1v3.1c0,2.3,1.9,4.2,4.2,4.2s4.2-1.9,4.2-4.2v-3.1C27.3,48.7,26.8,48.2,26.2,48.2z
		 M25.2,52.4c0,1.2-0.9,2.1-2.1,2.1S21,53.6,21,52.4v-2.1h4.2V52.4z"/>
</g>
</svg>
