<?xml version="1.0" encoding="utf-8"?>
<!-- Generator: Adobe Illustrator 24.1.2, SVG Export Plug-In . SVG Version: 6.00 Build 0)  -->
<svg version="1.1" id="Слой_1" xmlns="http://www.w3.org/2000/svg" xmlns:xlink="http://www.w3.org/1999/xlink" width="100px" x="0px" y="0px"
	 viewBox="0 0 84 80.7" style="enable-background:new 0 0 84 80.7;" xml:space="preserve">
<style type="text/css">
	.st0{fill:#FFFFFF;stroke:#FFFFFF;}
	.st1{fill:#FFFFFF;stroke:#FFFFFF;stroke-miterlimit:10;}
</style>
<g>
	<path class="st0" d="M9.5,64H3.9v12.3H0.5V61.2h9V64z"/>
	<path class="st0" d="M19.1,71.9h-7c0.1,1.6,1.1,2.3,2.9,2.3c1.2,0,2.2-0.3,3.1-0.8v2.4c-1,0.5-2.3,0.8-3.9,0.8
		c-1.7,0-3.1-0.5-4-1.4s-1.4-2.3-1.4-4c0-1.8,0.5-3.2,1.6-4.2c1-1,2.3-1.6,3.8-1.6c1.6,0,2.8,0.5,3.6,1.4c0.9,0.9,1.3,2.2,1.3,3.8
		V71.9z M16,69.8c0-1.5-0.6-2.3-1.9-2.3c-0.5,0-1,0.2-1.4,0.7c-0.4,0.4-0.6,1-0.7,1.6H16z"/>
	<path class="st0" d="M26.2,76.5c-1.8,0-3.2-0.5-4.2-1.5s-1.5-2.4-1.5-4.1c0-1.8,0.5-3.2,1.6-4.2s2.5-1.5,4.3-1.5
		c1.8,0,3.2,0.5,4.2,1.5s1.5,2.3,1.5,4c0,1.8-0.5,3.2-1.6,4.2S28,76.5,26.2,76.5z M26.3,67.8c-0.8,0-1.4,0.3-1.8,0.8
		c-0.4,0.5-0.7,1.3-0.7,2.3c0,2.1,0.8,3.1,2.5,3.1c1.6,0,2.4-1.1,2.4-3.2C28.7,68.8,27.9,67.8,26.3,67.8z"/>
	<path class="st0" d="M45.4,80.2h-2.7v-3.9h-7.2v3.9h-2.7v-6.3h1c1.5-2.4,2.3-5.2,2.4-8.4h7.5v8.4h1.7V80.2z M40.4,73.9v-6.1h-1.6
		c-0.2,2.3-0.7,4.3-1.8,6.1H40.4z"/>
	<path class="st0" d="M57,71.9h-7c0.1,1.6,1.1,2.3,2.9,2.3c1.2,0,2.2-0.3,3.1-0.8v2.4c-1,0.5-2.3,0.8-3.9,0.8c-1.7,0-3.1-0.5-4-1.4
		c-1-1-1.4-2.3-1.4-4c0-1.8,0.5-3.2,1.6-4.2c1-1,2.3-1.6,3.8-1.6c1.6,0,2.8,0.5,3.6,1.4c0.9,0.9,1.3,2.2,1.3,3.8V71.9z M53.9,69.8
		c0-1.5-0.6-2.3-1.9-2.3c-0.5,0-1,0.2-1.4,0.7c-0.4,0.4-0.6,1-0.7,1.6H53.9z"/>
	<path class="st0" d="M58.4,76v-2.4c1,0.5,2.1,0.7,3.1,0.7c1.5,0,2.2-0.4,2.2-1.2c0-0.8-0.8-1.3-2.4-1.3h-1.5v-2h1.5
		c1.4,0,2.1-0.4,2.1-1.2c0-0.7-0.6-1.1-1.9-1.1c-0.9,0-1.9,0.2-2.8,0.6v-2.3c1.3-0.4,2.4-0.5,3.4-0.5c3.1,0,4.7,1,4.7,2.9
		c0,1.3-0.8,2.2-2.5,2.5v0.1c0.9,0.1,1.6,0.3,2.1,0.8s0.7,1,0.7,1.7c0,2.2-1.8,3.2-5.3,3.2C60.5,76.5,59.4,76.3,58.4,76z"/>
	<path class="st0" d="M72.5,76.3V64h-4.3v-2.8h7.7v5.6h2.2c3.6,0,5.4,1.5,5.4,4.4c0,1.6-0.5,2.8-1.5,3.7s-2.4,1.3-4.1,1.3H72.5z
		 M75.9,69.4v4.3h1.5c1.7,0,2.6-0.7,2.6-2.2c0-1.4-0.8-2.1-2.5-2.1H75.9z"/>
</g>
<g id="Слой_2_1_">
	<g id="Capa_1">
		<path class="st1" d="M66.6,53.7h-3.7V12.9c0-0.8-0.6-1.5-1.4-1.5c0,0,0,0,0,0H42.6c-0.9,0-1.6,0.7-1.6,1.5v40.9h-3.2V2
			c0-0.8-0.6-1.5-1.4-1.5c0,0,0,0,0,0H17.5c-0.9,0-1.6,0.7-1.6,1.5v51.7h-3.4c-0.8,0-1.5,0.7-1.5,1.5c0,0.8,0.7,1.5,1.5,1.5h54
			c0.8,0,1.5-0.7,1.5-1.5C68.1,54.4,67.4,53.7,66.6,53.7z M53.6,39.5h-3.2V33h3.2V39.5z M56.6,33h3.2v6.5h-3.2L56.6,33L56.6,33z
			 M59.9,30h-3.2v-6.3h3.2V30z M53.6,30h-3.2v-6.3h3.2V30z M47.3,30h-3.2v-6.3h3.2V30z M44.1,33h3.2v6.5h-3.2V33z M50.4,42.5h3.2
			v11.2h-3.2V42.5z M56.6,42.5h3.2v11.2h-3.2V42.5z M59.9,20.7h-3.2v-6.3h3.2V20.7z M53.6,20.7h-3.2v-6.3h3.2V20.7z M47.3,20.7h-3.2
			v-6.3h3.2V20.7z M44.1,42.5h3.2v11.2h-3.2V42.5z M28.5,30h-3.2v-6.3h3.2V30z M31.5,23.7h3.2V30h-3.2V23.7z M34.8,20.7h-3.2v-6.3
			h3.2V20.7z M28.5,20.7h-3.2v-6.3h3.2V20.7z M22.2,20.7H19v-6.3h3.2V20.7z M19,23.7h3.2V30H19V23.7z M28.5,33v6.5h-3.2V33H28.5z
			 M31.5,33h3.2v6.5h-3.2V33z M19,33h3.2v6.5H19V33z M25.3,42.5h3.2v11.2h-3.2V42.5z M31.5,42.5h3.2v11.2h-3.2V42.5z M34.8,11.3
			h-3.2V3.5h3.2V11.3z M28.5,11.3h-3.2V3.5h3.2V11.3z M22.2,11.3H19V3.5h3.2V11.3z M19,42.5h3.2v11.2H19V42.5z"/>
	</g>
</g>
</svg>
