<?xml version="1.0" encoding="utf-8"?>
<!-- Generator: Adobe Illustrator 24.1.2, SVG Export Plug-In . SVG Version: 6.00 Build 0)  -->
<svg version="1.1" id="Слой_1" xmlns="http://www.w3.org/2000/svg" xmlns:xlink="http://www.w3.org/1999/xlink" x="0px" y="0px"
	 width="49px" height="36px" viewBox="0 0 49 36" style="enable-background:new 0 0 49 36;" xml:space="preserve">
<style type="text/css">
	.st0{fill:#FFFFFF;}
</style>
<path class="st0" d="M44,0H5C2.5,0,0.5,2.1,0.5,4.5v27C0.5,34,2.5,36,5,36h39c2.4,0,4.5-2,4.5-4.5v-27C48.5,2.1,46.4,0,44,0z
	 M44,4.5v3.8c-2.2,1.8-5.5,4.4-12.7,10c-1.6,1.2-4.7,4.2-6.8,4.1c-2.3,0.1-5.3-2.9-6.9-4.1C10.4,12.8,7.1,10.1,5,8.3V4.5H44z
	 M5,31.5V14.2c2.1,1.7,5.2,4.1,9.8,7.8c2.1,1.6,5.7,5.2,9.8,5.1c3.9,0.1,7.5-3.5,9.7-5.1c4.6-3.7,7.7-6.1,9.8-7.8v17.3H5z"/>
</svg>
