<?xml version="1.0" encoding="utf-8"?>
<!-- Generator: Adobe Illustrator 24.1.2, SVG Export Plug-In . SVG Version: 6.00 Build 0)  -->
<svg version="1.1" id="Слой_1" xmlns="http://www.w3.org/2000/svg" xmlns:xlink="http://www.w3.org/1999/xlink" x="0px" y="0px"
	 width="37px" height="49px" viewBox="0 0 37 49" style="enable-background:new 0 0 37 49;" xml:space="preserve">
<style type="text/css">
	.st0{fill:#FFFFFF;}
</style>
<path class="st0" d="M18.5,0c-10,0-18,8.2-18,18c0,6.8,2.2,8.8,14.2,27.9c1.8,2.8,5.8,2.8,7.6,0c12-19.1,14.3-21.2,14.3-27.9
	C36.5,8.1,28.3,0,18.5,0z M18.5,43.5C6.5,24.4,5,23.2,5,18c0-7.4,6-13.5,13.5-13.5C25.9,4.5,32,10.6,32,18
	C32,23.2,30.5,24.2,18.5,43.5z M11,18c0,4.2,3.3,7.5,7.5,7.5c4.1,0,7.5-3.3,7.5-7.5c0-4.1-3.4-7.5-7.5-7.5C14.3,10.5,11,13.9,11,18z
	"/>
</svg>
