<?xml version="1.0" encoding="utf-8"?>
<!-- Generator: Adobe Illustrator 24.1.2, SVG Export Plug-In . SVG Version: 6.00 Build 0)  -->
<svg version="1.1" id="Слой_1" xmlns="http://www.w3.org/2000/svg" xmlns:xlink="http://www.w3.org/1999/xlink" x="0px" y="0px"
	 width="49px" height="48px" viewBox="0 0 49 48" style="enable-background:new 0 0 49 48;" xml:space="preserve">
<style type="text/css">
	.st0{fill:#FFFFFF;}
</style>
<path class="st0" d="M45.1,2.2l-8.8-2c-2.1-0.5-4.1,0.6-4.9,2.4l-4.1,9.6c-0.8,1.7-0.3,3.8,1.2,5l3.8,3.1
	c-2.6,4.9-6.8,8.9-11.6,11.6l-3.1-3.8c-1.2-1.5-3.3-2-5-1.2l-9.6,4c-1.9,0.8-2.9,2.9-2.4,5l2,8.8C3,46.7,4.8,48,6.8,48
	c23,0,41.7-18.6,41.7-41.6C48.5,4.4,47.1,2.6,45.1,2.2z M7,43.5l-2-8.4l9.2-3.9l5.3,6.4c9.3-4.4,14.1-9.2,18.5-18.5l-6.4-5.3
	l3.9-9.2l8.5,2C43.9,26.9,27.3,43.4,7,43.5z"/>
</svg>
