<?xml version="1.0" encoding="utf-8"?>
<!-- Generator: Adobe Illustrator 24.1.2, SVG Export Plug-In . SVG Version: 6.00 Build 0)  -->
<svg version="1.1" id="Слой_1" xmlns="http://www.w3.org/2000/svg" xmlns:xlink="http://www.w3.org/1999/xlink" x="0px" y="0px"
	 width="65px" height="65px" viewBox="0 0 65 65" style="enable-background:new 0 0 65 65;" xml:space="preserve">
<g id="Слой_2_1_">
	<g id="Слой_1-2">
		<g>
			<path d="M48.5,1.6C48.5,2.8,46,3,31,3H13.4v16.2h6.7c3.9,0,6.8,0.4,6.8,0.9c0.4,1,1,2,1.8,2.7l1.8,1.8H26c-4.4,0-4.5,0.1-4.5,2.7
				V30h21.6v-2.7c0-2.6-0.1-2.7-4.5-2.7h-4.5l1.8-1.8c0.8-0.7,1.4-1.7,1.8-2.7c0-0.5,2.4-0.9,5.4-0.9c4.2,0,5.4,0.3,5.4,1.4
				c0,0.9,0.9,1.4,2.7,1.4h2.7V0.3h-2.7C49.4,0.3,48.5,0.7,48.5,1.6z M48.5,11.1v2.7H18.8V8.4h29.7V11.1z"/>
			<path d="M20.2,34.6c-1,1.6-7.9,13.2-14.7,24.4c-0.3,0.4,0.8,0.6,2.4,0.4c3-0.3,4.5-2.3,15.7-21.3l3.1-5.5h-2.6
				C22.6,32.5,21.1,33.3,20.2,34.6z"/>
			<path d="M29.6,48.9v16.2H35V32.7h-5.4V48.9z"/>
			<path d="M38.6,34.2c0.5,0.9,2.1,3.5,3.4,5.8c11.6,19.7,11.9,20.2,15.4,19.5c1.5-0.3,0.8-1.8-6.1-13.3C44,34,43.3,33.1,40.5,32.8
				C37.9,32.6,37.7,32.7,38.6,34.2z"/>
		</g>
	</g>
</g>
</svg>
