<?xml version="1.0" encoding="utf-8"?>
<!-- Generator: Adobe Illustrator 24.1.2, SVG Export Plug-In . SVG Version: 6.00 Build 0)  -->
<svg version="1.1" id="Слой_1" xmlns="http://www.w3.org/2000/svg" xmlns:xlink="http://www.w3.org/1999/xlink" x="0px" y="0px"
	 width="47px" height="48px" viewBox="0 0 47 48" style="enable-background:new 0 0 47 48;" xml:space="preserve">
<style type="text/css">
	.st0{fill:#FFFFFF;}
</style>
<path class="st0" d="M23.5,0.8C10.7,0.8,0.3,11.2,0.3,24s10.4,23.3,23.3,23.3S46.8,36.8,46.8,24S36.3,0.8,23.5,0.8z M23.5,42.8
	C13.1,42.8,4.8,34.4,4.8,24c0-10.3,8.3-18.8,18.8-18.8c10.3,0,18.8,8.4,18.8,18.8C42.3,34.4,33.8,42.8,23.5,42.8z M29.2,33
	c0.6,0.4,1.2,0.3,1.6-0.3l1.8-2.3c0.4-0.6,0.3-1.2-0.3-1.6l-6.2-4.6V10.9c0-0.6-0.6-1.1-1.1-1.1h-3c-0.7,0-1.1,0.6-1.1,1.1v15.5
	c0,0.3,0.1,0.7,0.4,0.8L29.2,33z"/>
</svg>
