<?xml version="1.0" standalone="no"?>
<!DOCTYPE svg PUBLIC "-//W3C//DTD SVG 20010904//EN"
 "http://www.w3.org/TR/2001/REC-SVG-20010904/DTD/svg10.dtd">
<svg version="1.0" xmlns="http://www.w3.org/2000/svg"
 width="800.000000pt" height="800.000000pt" viewBox="0 0 800.000000 800.000000"
 preserveAspectRatio="xMidYMid meet">
<metadata>
Created by potrace 1.11, written by Peter Selinger 2001-2013
</metadata>
<g transform="translate(0.000000,800.000000) scale(0.100000,-0.100000)"
fill="#000000" stroke="none">
<path d="M6230 7986 c-30 -7 -70 -20 -88 -30 -37 -19 -72 -70 -72 -104 0 -50
-30 -84 -91 -105 -62 -21 -104 -29 -233 -41 -134 -13 -173 -16 -314 -21 -78
-2 -147 -7 -152 -10 -5 -3 -12 -1 -15 5 -4 6 -12 7 -18 3 -13 -10 -567 -14
-2337 -16 l-1175 -2 -3 -997 c-2 -795 0 -998 10 -998 862 -4 1242 -11 1343
-25 22 -3 60 -8 85 -11 25 -2 56 -7 70 -10 14 -3 38 -8 53 -11 70 -13 97 -37
132 -112 52 -116 114 -196 264 -343 77 -76 142 -142 145 -146 5 -9 -7 -12 -41
-12 -10 0 -40 -1 -68 -1 -27 -1 -57 -1 -65 -1 -236 7 -717 -4 -776 -16 -63
-13 -107 -43 -129 -87 -18 -37 -19 -62 -20 -300 l0 -260 1328 0 c731 0 1331 4
1334 8 7 12 6 400 -2 462 -3 28 -6 57 -7 65 -1 20 -44 77 -67 89 -10 6 -29 12
-42 15 -13 2 -35 7 -49 10 -51 12 -235 17 -605 15 -277 -1 -317 -1 -323 6 -2
2 62 71 143 152 81 81 165 173 185 203 41 60 110 191 110 208 0 17 109 54 200
68 19 2 46 6 60 9 124 18 662 26 784 11 27 -4 64 -8 82 -11 56 -7 117 -26 150
-46 34 -21 50 -51 59 -112 9 -68 43 -106 115 -133 65 -23 120 -28 345 -28
l200 -1 1 1338 1 1338 -226 -2 c-131 -1 -249 -6 -281 -13z m-3790 -987 c0 7 8
8 23 3 12 -5 36 -6 52 -2 17 3 51 3 78 0 26 -4 47 -3 47 2 0 5 9 4 20 -2 12
-6 20 -7 20 -1 0 6 11 7 28 2 15 -4 38 -5 52 -1 13 3 46 3 72 0 26 -4 53 -3
59 1 7 4 25 3 40 -1 17 -5 31 -5 35 1 4 6 11 6 20 -2 9 -7 14 -8 14 -1 0 7 10
8 29 2 16 -4 32 -6 35 -3 5 5 45 5 169 0 26 -1 47 2 47 6 0 4 9 3 20 -3 12 -6
20 -7 20 -1 0 6 11 7 28 2 15 -4 38 -5 52 -1 13 3 46 3 72 0 26 -4 53 -3 59 1
7 4 25 3 40 -1 17 -5 31 -5 35 1 4 6 11 6 20 -2 9 -7 14 -8 14 -1 0 7 10 8 29
2 16 -4 32 -6 35 -3 5 6 96 5 131 -1 11 -2 32 0 46 4 15 4 32 4 39 0 7 -4 24
-5 38 -1 14 4 47 4 74 1 26 -4 48 -3 48 2 0 5 9 4 20 -2 12 -6 20 -7 20 -1 0
6 11 7 28 2 15 -4 38 -5 52 -1 13 3 46 3 72 0 27 -4 48 -3 48 2 0 5 9 4 20 -2
14 -8 20 -8 20 0 0 6 5 8 12 4 11 -7 54 -7 93 0 11 1 31 0 45 -4 14 -4 34 -4
45 0 11 4 32 4 47 -1 15 -4 30 -4 33 1 3 5 16 6 28 1 12 -5 30 -5 41 -2 10 4
40 4 66 1 25 -3 58 -3 72 1 14 4 31 3 38 -1 7 -4 24 -5 38 -1 14 4 47 4 74 1
26 -4 48 -3 48 2 0 5 9 4 20 -2 12 -6 20 -7 20 -1 0 6 11 7 28 2 15 -4 38 -5
52 -1 13 3 46 3 72 0 27 -4 48 -3 48 2 0 5 9 4 20 -2 14 -8 20 -8 20 0 0 6 5
8 12 4 11 -7 54 -7 93 0 11 1 31 0 45 -4 14 -4 34 -4 45 0 11 4 32 4 47 -1 15
-4 30 -4 33 1 3 5 16 6 28 1 12 -5 31 -5 42 -1 11 4 23 6 27 4 3 -2 30 -4 60
-4 29 0 61 0 71 0 9 0 25 0 35 0 9 0 39 0 66 0 27 0 58 -3 69 -6 11 -3 17 -2
14 3 -3 5 10 7 29 5 l34 -4 -2 -331 -3 -331 -1832 -1 -1831 0 -4 26 c-2 15 -1
35 3 45 3 11 4 23 1 28 -7 12 -4 324 3 336 4 6 3 10 -2 10 -4 0 -7 33 -5 72 1
40 2 88 2 106 -1 43 8 56 26 41 10 -8 14 -8 14 0z"/>
<path d="M2997 4014 c-1 -1 -20 -4 -42 -8 -74 -10 -90 -15 -165 -52 -94 -47
-196 -148 -263 -259 -26 -44 -53 -89 -60 -99 -52 -83 -77 -126 -77 -130 0 -2
-18 -32 -40 -65 -22 -33 -40 -63 -40 -66 0 -3 -12 -24 -27 -48 -16 -23 -37
-58 -48 -78 -15 -27 -448 -746 -506 -839 -5 -8 -58 -98 -119 -200 -60 -102
-113 -189 -118 -195 -4 -5 -19 -30 -32 -55 -14 -25 -28 -47 -31 -50 -4 -3 -16
-23 -28 -45 -16 -31 -147 -251 -233 -390 -105 -173 -138 -228 -138 -235 0 -5
-3 -10 -8 -12 -4 -1 -47 -70 -97 -153 -49 -82 -92 -152 -95 -155 -6 -6 -46
-74 -67 -117 -19 -38 -17 -40 33 -58 58 -20 311 -7 351 18 7 5 13 6 13 3 0
-13 118 48 170 86 59 45 141 126 199 198 20 25 39 47 42 50 3 3 25 32 49 65
24 33 47 62 52 63 4 2 8 10 8 17 0 7 3 15 8 17 4 2 25 30 47 63 21 33 45 66
51 73 7 6 16 21 19 32 3 11 10 20 14 20 4 0 13 11 19 25 7 14 17 31 22 38 16
18 112 170 250 392 68 110 133 216 145 235 12 19 40 64 61 100 21 36 44 75 51
85 59 97 230 383 238 397 6 10 53 89 105 176 52 86 97 162 99 167 2 6 15 28
29 50 42 67 210 356 310 535 14 25 36 62 49 82 12 21 23 39 23 41 0 3 34 64
75 137 42 73 74 135 71 137 -4 4 -365 11 -369 7z"/>
<path d="M3764 3999 c-2 -5 -11 -6 -18 -3 -12 5 -14 -295 -14 -1995 l0 -2001
336 2 c294 3 337 5 334 18 -2 8 -3 40 -2 70 1 30 1 91 0 135 -1 44 -1 87 -1
95 0 8 0 157 0 330 0 173 0 322 0 330 0 8 0 58 0 110 0 52 0 100 0 105 0 6 0
57 0 115 0 58 0 119 0 135 0 17 0 73 0 125 0 52 0 100 0 105 0 6 0 57 0 115 0
58 0 119 0 135 0 17 0 73 0 125 0 52 0 102 0 110 0 8 0 175 0 370 0 195 0 362
0 370 0 8 0 58 0 110 0 52 0 100 0 105 0 6 0 57 0 115 0 58 0 119 0 135 0 17
0 73 0 125 0 52 0 100 0 105 0 19 0 220 0 235 0 8 1 46 2 84 1 56 -2 72 -16
82 -10 8 -22 11 -26 8 -14 -8 -90 -10 -95 -2 -3 4 -16 3 -29 -2 -15 -6 -27 -6
-30 0 -3 5 -15 6 -29 0 -12 -4 -29 -5 -36 0 -7 5 -23 4 -36 0 -12 -5 -24 -6
-27 -3 -8 8 -127 9 -127 1 0 -4 -13 -3 -29 2 -15 4 -33 5 -40 1 -6 -4 -34 -4
-62 -1 -27 4 -52 3 -55 -1z"/>
<path d="M4824 3988 c-20 -5 -34 -16 -37 -30 -7 -24 34 -110 115 -241 26 -43
48 -79 48 -81 0 -4 220 -372 230 -383 5 -7 10 -14 10 -17 0 -2 22 -42 48 -88
26 -46 51 -90 55 -98 4 -8 15 -27 25 -42 14 -22 143 -240 227 -383 11 -19 38
-65 60 -102 22 -37 42 -72 44 -78 2 -5 7 -12 11 -15 3 -3 21 -32 39 -65 19
-33 45 -78 59 -100 14 -22 25 -42 24 -45 0 -3 5 -12 12 -20 7 -8 28 -41 47
-74 19 -32 44 -75 56 -95 13 -20 39 -65 59 -101 21 -36 40 -67 43 -70 4 -3 47
-72 96 -154 127 -210 139 -229 245 -392 52 -80 100 -153 105 -163 6 -9 12 -18
15 -21 17 -17 60 -80 60 -88 0 -6 3 -12 8 -14 4 -1 30 -32 57 -67 166 -214
287 -294 440 -287 130 6 199 28 214 69 27 71 -34 223 -236 587 -72 130 -86
156 -93 165 -4 6 -19 30 -32 55 -14 25 -62 108 -108 185 -46 77 -92 156 -103
175 -10 19 -28 47 -38 62 -11 14 -19 29 -19 32 0 3 -17 32 -37 63 -21 32 -44
69 -50 83 -7 14 -22 39 -33 55 -11 17 -23 38 -26 48 -4 9 -10 17 -15 17 -5 0
-9 4 -9 9 0 6 -39 74 -87 153 -47 79 -91 152 -97 163 -40 72 -132 221 -138
223 -5 2 -8 8 -8 13 0 5 -22 45 -50 89 -27 44 -50 84 -50 89 0 5 -4 11 -8 13
-4 2 -37 50 -72 108 -35 58 -85 137 -112 177 -26 40 -48 77 -48 82 0 6 -8 15
-17 20 -10 6 -13 11 -8 11 6 0 6 3 -1 8 -6 4 -33 40 -60 81 -224 337 -364 452
-584 477 -95 10 -240 12 -276 2z"/>
</g>
</svg>
